<svg id="Livello_1" data-name="Livello 1" xmlns="http://www.w3.org/2000/svg" width="247" height="60" viewBox="0 0 247 60">
  <g>
    <path d="M30,0H217a30,30,0,0,1,30,30h0a30,30,0,0,1-30,30H30A30,30,0,0,1,0,30H0A30,30,0,0,1,30,0Z" style="fill: #fff"/>
    <g>
      <path d="M60.34,26.43l1.6,1.67h0l.09.08h0l.08.09-.18.18.19-.18,2.25,2.34h0l.09.09h0l.09.08h0l.85.87.32.24a3.88,3.88,0,0,0,.72.47,2.75,2.75,0,0,0,3.15-.61l.27-.25a6,6,0,0,1,.6-.53l2.3-2.48v0l.7-.72.06.06-.06-.06.34-.35,1.92-2h0l.08-.08h0l.09-.09h0l.17-.18L78,23a.77.77,0,0,0,.07-1A13.18,13.18,0,0,0,59.67,19a12.76,12.76,0,0,0-2.87,2.81.78.78,0,0,0,.06,1Z" style="fill: #1a1818"/>
      <path d="M73.84,29.35a.56.56,0,0,0,0,.78l4.48,4.68a.78.78,0,0,0,1.1,0,.74.74,0,0,0,.19-.27,13.23,13.23,0,0,0,0-9.65.78.78,0,0,0-1-.44.73.73,0,0,0-.28.19Z" style="fill: #1a1818"/>
      <path d="M76.58,34.85l-2.92-3-1-1-.94,1A6,6,0,0,1,69,33.91a4.52,4.52,0,0,1-4.66-1.1,7,7,0,0,1-.52-.57c-.07-.08-.14-.17-.22-.25l-.07-.08h0l-.08-.09h0l-.08-.08-.13-.11-.63-.75L60.26,33l-3.35,3.48-.08.08a.79.79,0,0,0-.06,1,13.18,13.18,0,0,0,21.32-.24.79.79,0,0,0-.07-1Z" style="fill: #1a1818"/>
      <path d="M61.13,30.13a.56.56,0,0,0,0-.78l-4.7-4.9a.77.77,0,0,0-1.29.24,13.28,13.28,0,0,0,0,10.08.79.79,0,0,0,1,.42.81.81,0,0,0,.26-.18Z" style="fill: #1a1818"/>
    </g>
    <g style="isolation: isolate">
      <g style="isolation: isolate">
        <path d="M106.5,25A4.6,4.6,0,0,1,108,28h-1.71a3.24,3.24,0,0,0-3.52-2.7,3.78,3.78,0,0,0-3,1.34,6.17,6.17,0,0,0-1.16,4.11,6.08,6.08,0,0,0,1,3.68,3.62,3.62,0,0,0,3.11,1.41,3.26,3.26,0,0,0,2.89-1.48,5.87,5.87,0,0,0,.79-2.06h1.7a5.89,5.89,0,0,1-1.49,3.42,5.28,5.28,0,0,1-4.1,1.66A5.37,5.37,0,0,1,98.78,36q-2-1.8-2-5.57a7.17,7.17,0,0,1,1.5-4.69,5.42,5.42,0,0,1,4.45-2A5.18,5.18,0,0,1,106.5,25Z" style="fill: #1c252c"/>
        <path d="M116.28,28.53a4.73,4.73,0,0,1,1.25,3.56,6.16,6.16,0,0,1-1.1,3.76A4,4,0,0,1,113,37.33,3.83,3.83,0,0,1,110,36a5.17,5.17,0,0,1-1.13-3.52A5.63,5.63,0,0,1,110,28.72a4,4,0,0,1,3.21-1.41A4.22,4.22,0,0,1,116.28,28.53Zm-1,6.25a5.88,5.88,0,0,0,.58-2.64,4.9,4.9,0,0,0-.41-2.15,2.35,2.35,0,0,0-2.28-1.3,2.25,2.25,0,0,0-2.09,1.11,5.23,5.23,0,0,0-.65,2.67,4.53,4.53,0,0,0,.65,2.5,2.3,2.3,0,0,0,2.07,1A2.13,2.13,0,0,0,115.29,34.78Z" style="fill: #1c252c"/>
        <path d="M118.77,27.59h1.5v1.33a4.21,4.21,0,0,1,1.41-1.18,3.82,3.82,0,0,1,1.67-.36,2.73,2.73,0,0,1,2.7,1.39,4.93,4.93,0,0,1,.39,2.19v6h-1.61V31.07a3.2,3.2,0,0,0-.25-1.39,1.56,1.56,0,0,0-1.53-.88,3.38,3.38,0,0,0-.93.11,2.39,2.39,0,0,0-1.14.78,2.37,2.37,0,0,0-.51,1,6.38,6.38,0,0,0-.12,1.42V37h-1.58Z" style="fill: #1c252c"/>
        <path d="M128.39,25H130v2.63h1.5v1.29H130V35a.67.67,0,0,0,.33.66,1.37,1.37,0,0,0,.62.1h.25l.3,0V37a3.47,3.47,0,0,1-.56.11,4.31,4.31,0,0,1-.64,0,1.7,1.7,0,0,1-1.5-.57,2.46,2.46,0,0,1-.4-1.47V28.88h-1.27V27.59h1.27Z" style="fill: #1c252c"/>
        <path d="M137.42,31.3a.86.86,0,0,0,.73-.45,1.43,1.43,0,0,0,.1-.61,1.3,1.3,0,0,0-.57-1.18,3.1,3.1,0,0,0-1.65-.37,2.07,2.07,0,0,0-1.75.68,2.21,2.21,0,0,0-.38,1.1h-1.47A2.75,2.75,0,0,1,133.55,28a4.71,4.71,0,0,1,2.52-.68,5.1,5.1,0,0,1,2.69.63,2.14,2.14,0,0,1,1,2v5.42a.76.76,0,0,0,.1.4.49.49,0,0,0,.43.15l.24,0,.28,0V37l-.56.14-.53,0a1.3,1.3,0,0,1-1.19-.58,2.12,2.12,0,0,1-.27-.87,4.06,4.06,0,0,1-1.39,1.1,4.3,4.3,0,0,1-2,.47,3,3,0,0,1-2.14-.8,2.65,2.65,0,0,1-.83-2,2.56,2.56,0,0,1,.82-2,3.9,3.9,0,0,1,2.15-.89Zm-3.33,4.28a1.86,1.86,0,0,0,1.18.39,3.7,3.7,0,0,0,1.62-.38,2.18,2.18,0,0,0,1.32-2.1V32.22a2.66,2.66,0,0,1-.75.3,4.85,4.85,0,0,1-.89.18l-1,.12a3.88,3.88,0,0,0-1.29.36,1.41,1.41,0,0,0-.73,1.32A1.3,1.3,0,0,0,134.09,35.58Z" style="fill: #1c252c"/>
        <path d="M147.9,28.09a3.65,3.65,0,0,1,1.2,2.66h-1.54a2.88,2.88,0,0,0-.64-1.45,2,2,0,0,0-1.61-.57,2.21,2.21,0,0,0-2.16,1.47,5.91,5.91,0,0,0-.42,2.37,4.39,4.39,0,0,0,.6,2.37,2,2,0,0,0,1.88,1,2.08,2.08,0,0,0,1.56-.6,3.28,3.28,0,0,0,.79-1.64h1.54a3.71,3.71,0,0,1-4,3.6,3.59,3.59,0,0,1-2.94-1.35,5.17,5.17,0,0,1-1.1-3.37,5.65,5.65,0,0,1,1.21-3.86,3.88,3.88,0,0,1,3.06-1.38A4.08,4.08,0,0,1,147.9,28.09Z" style="fill: #1c252c"/>
        <path d="M150.3,25h1.6v2.63h1.5v1.29h-1.5V35a.67.67,0,0,0,.33.66,1.34,1.34,0,0,0,.62.1h.24l.31,0V37a3.38,3.38,0,0,1-.57.11,4.17,4.17,0,0,1-.63,0,1.73,1.73,0,0,1-1.51-.57,2.53,2.53,0,0,1-.39-1.47V28.88H149V27.59h1.28Z" style="fill: #1c252c"/>
        <path d="M160.68,24.09v8a4.71,4.71,0,0,0,.53,2.34,2.81,2.81,0,0,0,2.66,1.4,3.13,3.13,0,0,0,3-1.52,4.79,4.79,0,0,0,.43-2.22v-8h1.77v7.25a8.3,8.3,0,0,1-.65,3.66c-.79,1.56-2.27,2.34-4.46,2.34s-3.67-.78-4.45-2.34a8.3,8.3,0,0,1-.65-3.66V24.09Z" style="fill: #1c252c"/>
        <path d="M171.82,34.05a2.22,2.22,0,0,0,.4,1.21,2.57,2.57,0,0,0,2.12.76,3.16,3.16,0,0,0,1.58-.38,1.27,1.27,0,0,0,.68-1.18,1,1,0,0,0-.55-.92,6.43,6.43,0,0,0-1.37-.45l-1.28-.32a6,6,0,0,1-1.8-.67,2,2,0,0,1-1-1.77,2.69,2.69,0,0,1,1-2.16,4,4,0,0,1,2.63-.83,3.69,3.69,0,0,1,3.11,1.25,2.73,2.73,0,0,1,.58,1.7h-1.5a1.82,1.82,0,0,0-.39-1A2.51,2.51,0,0,0,174,28.7a2.43,2.43,0,0,0-1.39.34,1.06,1.06,0,0,0-.47.91,1.12,1.12,0,0,0,.62,1,4,4,0,0,0,1.05.38l1.07.26a8.16,8.16,0,0,1,2.33.8,2.12,2.12,0,0,1,.92,1.91,2.91,2.91,0,0,1-1,2.17,4.16,4.16,0,0,1-2.94.91,4,4,0,0,1-3-1,3.65,3.65,0,0,1-1-2.36Z" style="fill: #1c252c"/>
      </g>
    </g>
  </g>
</svg>
