<svg xmlns="http://www.w3.org/2000/svg" width="247" height="60" viewBox="0 0 247 60"><defs><style>.a{fill:#fff;}.b{fill:#1a1818;}.c{fill:#1c252c;font-size:18px;font-family:Helvetica;letter-spacing:-0.04em;}</style></defs><g transform="translate(-837 -859)"><rect class="a" width="247" height="60" rx="30" transform="translate(837 859)"/><g transform="translate(544.336 528.432)"><path class="b" d="M379.173,357l1.6,1.663h0l.086.087h0l.084.085-.18.18.183-.177,2.258,2.339h0l.086.087h0l.086.088h0l.85.869c.11.077.217.157.321.236a3.665,3.665,0,0,0,.726.467,2.747,2.747,0,0,0,3.144-.605c.093-.083.183-.169.273-.255a6.7,6.7,0,0,1,.6-.529l2.3-2.48.01-.017.7-.72.063.062-.063-.062.341-.352,1.914-1.994h0l.087-.088h0l.087-.088h0l.169-.18,1.931-2.017a.781.781,0,0,0,.07-.995,13.189,13.189,0,0,0-21.273-.248.781.781,0,0,0,.061,1.009Z" transform="translate(-26.166 0)"/><path class="b" d="M572.077,443.072a.563.563,0,0,0,0,.78l4.48,4.677a.78.78,0,0,0,1.289-.249,13.227,13.227,0,0,0,.022-9.65.78.78,0,0,0-1.289-.252Z" transform="translate(-205.572 -83.154)"/><path class="b" d="M395.177,515.626l-2.928-3.043-.982-1.026-.944,1.014a6.033,6.033,0,0,1-2.773,2.115,4.523,4.523,0,0,1-4.653-1.1,6.011,6.011,0,0,1-.524-.572c-.071-.085-.143-.17-.216-.253l-.071-.079h0l-.087-.086h0l-.078-.078-.126-.112-.636-.748-2.308,2.15-3.345,3.472-.078.081a.782.782,0,0,0-.062,1.007,13.189,13.189,0,0,0,21.318-.246.782.782,0,0,0-.072-1Z" transform="translate(-25.929 -150.205)"/><path class="b" d="M353.791,441.7a.563.563,0,0,0,0-.78l-4.7-4.9a.781.781,0,0,0-1.286.242,13.223,13.223,0,0,0,.024,10.077.781.781,0,0,0,1.285.239Z" transform="translate(0 -81.004)"/></g><text class="c" transform="translate(933 896)"><tspan x="0" y="0">Contact Us</tspan></text></g></svg>