<svg xmlns="http://www.w3.org/2000/svg" xmlns:xlink="http://www.w3.org/1999/xlink" width="18.4" height="18.406" viewBox="0 0 18.4 18.406">
  <defs>
    <radialGradient id="radial-gradient" cx="0.126" cy="1" r="1.487" gradientTransform="matrix(0.999, -0.041, 0.038, 0.929, -0.041, 0.076)" gradientUnits="objectBoundingBox">
      <stop offset="0" stop-color="#ff592e"/>
      <stop offset="0.143" stop-color="#fe5333"/>
      <stop offset="0.515" stop-color="#f00079"/>
      <stop offset="1" stop-color="#aa1fa4"/>
    </radialGradient>
  </defs>
  <path id="Unione_51" data-name="Unione 51" d="M-21601.031-12072.889a4.921,4.921,0,0,1-2.906-.9,5.009,5.009,0,0,1-2.2-4.273c-.01-2.684,0-5.368,0-8.047a5.539,5.539,0,0,1,.094-1.035,4.992,4.992,0,0,1,3.785-3.985,8.151,8.151,0,0,1,.828-.152h8.98c.189.027.379.049.564.093a5.011,5.011,0,0,1,3.99,3.79,8.125,8.125,0,0,1,.152.824v8.979a1.411,1.411,0,0,1-.039.2,8.2,8.2,0,0,1-.385,1.426,4.91,4.91,0,0,1-4.68,3.074c-1.164.019-2.328.024-3.494.024C-21597.9-12072.875-21599.469-12072.885-21601.031-12072.889Zm.076-16.755a4.078,4.078,0,0,0-1.2.185,3.409,3.409,0,0,0-2.354,3.356v8.03a3.524,3.524,0,0,0,.191,1.215,3.436,3.436,0,0,0,3.34,2.337c2.689.006,5.389.006,8.078,0a3.391,3.391,0,0,0,2.891-1.464,3.436,3.436,0,0,0,.635-2.093v-7.993a3.709,3.709,0,0,0-.184-1.236,3.447,3.447,0,0,0-3.373-2.343q-2.007,0-4.012,0T-21600.955-12089.644Zm4.012,12.3a4.762,4.762,0,0,1-4.738-4.744,4.764,4.764,0,0,1,4.738-4.734,4.761,4.761,0,0,1,4.746,4.739,4.757,4.757,0,0,1-4.736,4.739Zm-3.1-4.739a3.115,3.115,0,0,0,3.107,3.107,3.11,3.11,0,0,0,3.1-3.107,3.108,3.108,0,0,0-3.1-3.106A3.113,3.113,0,0,0-21600.045-12082.085Zm8-3.735a1.2,1.2,0,0,1-1.148-1.21,1.192,1.192,0,0,1,1.219-1.171,1.2,1.2,0,0,1,1.172,1.209,1.2,1.2,0,0,1-1.2,1.172Z" transform="translate(21606.141 12091.281)" fill="url(#radial-gradient)"/>
</svg>
