<svg id="Livello_1" data-name="Livello 1" xmlns="http://www.w3.org/2000/svg" xmlns:xlink="http://www.w3.org/1999/xlink" width="60" height="60" viewBox="0 0 60 60">
  <defs>
    <radialGradient id="Sfumatura_senza_nome_2" data-name="Sfumatura senza nome 2" cx="18.83" cy="16.95" r="25.8" gradientTransform="translate(-7.29 -7.15) scale(1.43 1.43)" gradientUnits="userSpaceOnUse">
      <stop offset="0" stop-color="#ff592e"/>
      <stop offset="0.14" stop-color="#fe5333"/>
      <stop offset="0.52" stop-color="#f00079"/>
      <stop offset="1" stop-color="#aa1fa4"/>
    </radialGradient>
  </defs>
  <path d="M30,0h0A30,30,0,0,1,60,30h0A30,30,0,0,1,30,60h0A30,30,0,0,1,0,30H0A30,30,0,0,1,30,0Z" style="fill: #fff"/>
  <path id="Unione_51" data-name="Unione 51" d="M24.14,42.87A7.07,7.07,0,0,1,20,41.58a7.17,7.17,0,0,1-3.15-6.12c0-3.85,0-7.69,0-11.53A7.34,7.34,0,0,1,17,22.45a7.15,7.15,0,0,1,5.43-5.71,9.58,9.58,0,0,1,1.19-.22H36.44c.27,0,.54.07.81.13A7.18,7.18,0,0,1,43,22.08c.09.39.17.79.22,1.18V36.13a1.4,1.4,0,0,1-.06.28,12.17,12.17,0,0,1-.55,2.05,7,7,0,0,1-6.71,4.4c-1.67,0-3.34,0-5,0Zm.11-24a5.83,5.83,0,0,0-1.72.26,4.88,4.88,0,0,0-3.38,4.81V35.45a5,5,0,0,0,5.07,5.08H35.8a4.85,4.85,0,0,0,4.14-2.09,5,5,0,0,0,.91-3V24a5.64,5.64,0,0,0-.26-1.78,4.94,4.94,0,0,0-4.84-3.35H24.25ZM30,36.49a6.79,6.79,0,1,1,6.8-6.79A6.83,6.83,0,0,1,30,36.49ZM25.55,29.7A4.45,4.45,0,1,0,30,25.25a4.46,4.46,0,0,0-4.46,4.45ZM37,24.35a1.72,1.72,0,0,1-1.64-1.74,1.7,1.7,0,0,1,1.74-1.67h0a1.71,1.71,0,0,1,0,3.41Z" style="fill: url(#Sfumatura_senza_nome_2)"/>
</svg>
