<svg xmlns="http://www.w3.org/2000/svg" width="247" height="60" viewBox="0 0 247 60"><defs><style>.a{fill:#fff;}.b{stroke:#000;stroke-width:0.3px;}</style></defs><g transform="translate(56.391 7.053)"><rect class="a" width="247" height="60" rx="30" transform="translate(-56.391 -7.053)"/><g transform="translate(9.609 7.847)"><g transform="translate(-10)"><path d="M27.457,20.941A5.969,5.969,0,0,1,30.3,15.934a6.109,6.109,0,0,0-4.813-2.6c-2.025-.212-3.989,1.212-5.021,1.212-1.052,0-2.641-1.191-4.353-1.156a6.412,6.412,0,0,0-5.395,3.291c-2.332,4.039-.593,9.975,1.642,13.239,1.117,1.6,2.424,3.384,4.134,3.321,1.673-.07,2.3-1.067,4.317-1.067,2,0,2.588,1.067,4.331,1.028,1.8-.03,2.926-1.606,4.005-3.22a13.179,13.179,0,0,0,1.831-3.73A5.767,5.767,0,0,1,27.457,20.941Z" transform="translate(-9.609 -6.974)"/><path d="M22.7,12.057a5.877,5.877,0,0,0,1.344-4.21,5.976,5.976,0,0,0-3.868,2,5.588,5.588,0,0,0-1.38,4.054A4.943,4.943,0,0,0,22.7,12.057Z" transform="translate(-8.146 -7.847)"/></g><g transform="translate(28.785 11.626)"><path class="b" d="M43.561,28.589H38.07l-1.318,3.893H34.427l5.2-14.4h2.416l5.2,14.4H44.879Zm-4.921-1.8h4.352l-2.146-6.318h-.06Z" transform="translate(-34.427 -17.838)"/><path class="b" d="M56.522,26.709c0,3.263-1.747,5.36-4.382,5.36a3.56,3.56,0,0,1-3.3-1.837h-.05v5.2H46.631V21.457h2.087V23.2h.039A3.725,3.725,0,0,1,52.1,21.348C54.766,21.348,56.522,23.454,56.522,26.709Zm-2.215,0c0-2.126-1.1-3.524-2.776-3.524-1.646,0-2.755,1.427-2.755,3.524,0,2.116,1.109,3.533,2.755,3.533C53.209,30.242,54.307,28.853,54.307,26.709Z" transform="translate(-32.476 -17.315)"/><path class="b" d="M66.488,26.709c0,3.263-1.748,5.36-4.383,5.36a3.56,3.56,0,0,1-3.3-1.837h-.05v5.2H56.6V21.457h2.087V23.2h.039a3.725,3.725,0,0,1,3.344-1.856C64.73,21.348,66.488,23.454,66.488,26.709Zm-2.216,0c0-2.126-1.1-3.524-2.776-3.524-1.647,0-2.755,1.427-2.755,3.524,0,2.116,1.108,3.533,2.755,3.533C63.174,30.242,64.272,28.853,64.272,26.709Z" transform="translate(-30.883 -17.315)"/><path class="b" d="M72.013,28.5c.16,1.429,1.547,2.366,3.444,2.366,1.818,0,3.125-.937,3.125-2.226,0-1.118-.789-1.787-2.655-2.245l-1.867-.45c-2.644-.639-3.873-1.876-3.873-3.883,0-2.484,2.165-4.192,5.24-4.192,3.045,0,5.131,1.707,5.2,4.192H78.451c-.13-1.437-1.318-2.3-3.055-2.3s-2.924.878-2.924,2.155c0,1.018.759,1.618,2.615,2.076l1.587.39c2.955.7,4.182,1.886,4.182,3.993,0,2.694-2.146,4.382-5.559,4.382-3.194,0-5.352-1.648-5.491-4.253Z" transform="translate(-28.771 -17.871)"/><path class="b" d="M83.855,19.3v2.484h2v1.707h-2v5.789c0,.9.4,1.319,1.278,1.319a6.612,6.612,0,0,0,.709-.05v1.7a5.9,5.9,0,0,1-1.2.1c-2.126,0-2.955-.8-2.955-2.835v-6.02H80.163V21.784h1.526V19.3Z" transform="translate(-27.115 -17.643)"/><path class="b" d="M86.064,26.712c0-3.3,1.946-5.381,4.98-5.381s4.982,2.076,4.982,5.381-1.927,5.379-4.982,5.379S86.064,30.024,86.064,26.712Zm7.765,0c0-2.266-1.038-3.6-2.785-3.6s-2.785,1.348-2.785,3.6c0,2.276,1.038,3.6,2.785,3.6S93.829,28.987,93.829,26.712Z" transform="translate(-26.172 -17.318)"/><path class="b" d="M96.185,21.457h2.056v1.787h.05a2.5,2.5,0,0,1,2.525-1.9,3.345,3.345,0,0,1,.739.08v2.016a3.039,3.039,0,0,0-.968-.13A2.173,2.173,0,0,0,98.34,25.73v6.228H96.185Z" transform="translate(-24.554 -17.315)"/><path class="b" d="M110.689,28.877c-.29,1.906-2.146,3.214-4.521,3.214-3.055,0-4.951-2.046-4.951-5.33s1.907-5.43,4.861-5.43c2.905,0,4.732,2,4.732,5.18v.739h-7.417v.13a2.735,2.735,0,0,0,2.825,2.974,2.376,2.376,0,0,0,2.425-1.477ZM103.4,25.743h5.25a2.525,2.525,0,0,0-2.575-2.665A2.659,2.659,0,0,0,103.4,25.743Z" transform="translate(-23.75 -17.318)"/></g></g><g transform="translate(39.837 8.531)"><path d="M38.171,8.731c2.053,0,3.257,1.261,3.257,3.439,0,2.211-1.195,3.482-3.257,3.482h-2.5V8.731Zm-1.424,5.942h1.3a2.175,2.175,0,0,0,2.281-2.489,2.181,2.181,0,0,0-2.281-2.475h-1.3Z" transform="translate(-35.671 -8.39)"/><path d="M41.681,12.817a2.474,2.474,0,1,1,4.926,0,2.475,2.475,0,1,1-4.926,0Zm3.866,0c0-1.132-.509-1.794-1.4-1.794s-1.4.662-1.4,1.794.5,1.8,1.4,1.8S45.547,13.954,45.547,12.817Z" transform="translate(-34.71 -8.17)"/><path d="M52.373,15.418H51.3l-1.079-3.847h-.082l-1.074,3.847H48.01L46.569,10.2h1.046l.935,3.985h.078L49.7,10.2h.988l1.074,3.985h.081l.931-3.985h1.031Z" transform="translate(-33.929 -8.156)"/><path d="M53.854,10.209h.992v.829h.077a1.565,1.565,0,0,1,1.559-.93,1.7,1.7,0,0,1,1.808,1.943v3.381H57.258V12.309c0-.84-.364-1.257-1.127-1.257a1.2,1.2,0,0,0-1.247,1.323v3.056h-1.03Z" transform="translate(-32.764 -8.17)"/><path d="M59.094,8.437h1.03V15.7h-1.03Z" transform="translate(-31.926 -8.437)"/><path d="M61.218,12.817a2.474,2.474,0,1,1,4.926,0,2.475,2.475,0,1,1-4.926,0Zm3.866,0c0-1.132-.509-1.794-1.4-1.794s-1.4.662-1.4,1.794.5,1.8,1.4,1.8S65.084,13.954,65.084,12.817Z" transform="translate(-31.587 -8.17)"/><path d="M66.4,13.954c0-.939.7-1.482,1.943-1.559l1.414-.081v-.451c0-.551-.364-.863-1.068-.863-.576,0-.974.211-1.089.58h-1c.106-.9.949-1.472,2.134-1.472,1.308,0,2.047.652,2.047,1.755v3.569h-.992V14.7H69.71a1.754,1.754,0,0,1-1.568.82A1.578,1.578,0,0,1,66.4,13.954Zm3.357-.445v-.437l-1.275.081c-.719.049-1.046.293-1.046.754s.408.743.968.743A1.231,1.231,0,0,0,69.758,13.509Z" transform="translate(-30.758 -8.17)"/><path d="M71.348,13.085c0-1.65.849-2.7,2.168-2.7a1.721,1.721,0,0,1,1.6.916H75.2V8.437h1.03V15.7h-.987v-.826h-.082a1.811,1.811,0,0,1-1.64.912C72.188,15.785,71.348,14.74,71.348,13.085Zm1.065,0c0,1.108.522,1.775,1.4,1.775s1.406-.676,1.406-1.77-.543-1.775-1.406-1.775S72.413,11.986,72.413,13.085Z" transform="translate(-29.967 -8.437)"/><path d="M79.23,12.817a2.474,2.474,0,1,1,4.926,0,2.475,2.475,0,1,1-4.926,0Zm3.866,0c0-1.132-.508-1.794-1.4-1.794s-1.4.662-1.4,1.794.5,1.8,1.4,1.8S83.1,13.954,83.1,12.817Z" transform="translate(-28.707 -8.17)"/><path d="M84.669,10.209h.993v.829h.077a1.564,1.564,0,0,1,1.559-.93,1.7,1.7,0,0,1,1.808,1.943v3.381H88.074V12.309c0-.84-.364-1.257-1.127-1.257A1.2,1.2,0,0,0,85.7,12.376v3.056H84.669Z" transform="translate(-27.838 -8.17)"/><path d="M93.771,9.074V10.4H94.9v.869H93.771v2.685c0,.547.225.788.739.788a3.489,3.489,0,0,0,.393-.024v.858a3.32,3.32,0,0,1-.561.053c-1.146,0-1.6-.4-1.6-1.41v-2.95h-.829V10.4h.829V9.074Z" transform="translate(-26.68 -8.335)"/><path d="M95.705,8.437h1.021v2.878h.082A1.608,1.608,0,0,1,98.4,10.38a1.721,1.721,0,0,1,1.8,1.947V15.7H99.167V12.581c0-.834-.389-1.257-1.117-1.257a1.221,1.221,0,0,0-1.315,1.325V15.7h-1.03Z" transform="translate(-26.074 -8.437)"/><path d="M105.405,14.021a2.12,2.12,0,0,1-2.263,1.511c-1.5,0-2.413-1.026-2.413-2.7s.936-2.728,2.408-2.728c1.453,0,2.33.993,2.33,2.633v.36H101.78v.058a1.382,1.382,0,0,0,1.391,1.5,1.253,1.253,0,0,0,1.243-.633Zm-3.626-1.683h2.639a1.262,1.262,0,0,0-1.286-1.354A1.337,1.337,0,0,0,101.78,12.338Z" transform="translate(-25.27 -8.17)"/></g></g></svg>