<svg xmlns="http://www.w3.org/2000/svg" width="133.413" height="70.447" viewBox="0 0 133.413 70.447">
  <g id="Logo" transform="translate(-3)">
    <path id="Path_69" data-name="Path 69" d="M401.4,261.938c2.378,0,4.757.049,7.133-.01a12.187,12.187,0,0,1,3.262,23.934,29.04,29.04,0,0,1-5.875.506,38.792,38.792,0,0,1-3.922,0c-.845-.04-1.087.268-1.082,1.085.023,3.487-.059,6.975.005,10.462.022,1.192-.415,1.388-1.465,1.26a9.079,9.079,0,0,1-7.639-8.853c-.131-3.959-.033-7.925-.074-11.888-.01-1,.5-1.17,1.342-1.166q7.668.032,15.337.011a3.037,3.037,0,0,0,3.079-4,2.943,2.943,0,0,0-3.011-2.2c-2.536-.025-5.073.021-7.608-.019a9.064,9.064,0,0,1-9.008-8c-.12-.859.107-1.143.965-1.134C395.689,261.957,398.542,261.938,401.4,261.938Z" transform="translate(-316.518 -228.763)" fill="#fff"/>
    <path id="Path_70" data-name="Path 70" d="M352.282,252.776c0,6.206.009,10.6.008,16.8,0,1.606-.323,1.822-2.078,1.455-4.343-.907-7.108-4.03-7.187-8.286-.009-.515-.017-9.487-.023-10l-.011,8.466c0-.44-.012-15.046-.011-21.252,0-1.606.323-1.822,2.079-1.455,4.343.907,7.108,4.03,7.187,8.286Z" transform="translate(-284.254 -213.164)" fill="#fff"/>
    <path id="Path_71" data-name="Path 71" d="M305.362,216.776c0,6.206.008,22.774.008,28.98,0,1.606-.323,1.822-2.078,1.455-4.343-.907-7.108-4.03-7.187-8.286-.009-.515-.017-21.666-.023-22.181l-.011,20.645c0-.44-.012-27.225-.011-33.431,0-1.606.323-1.822,2.079-1.455,4.343.907,7.108,4.03,7.187,8.286Z" transform="translate(-253.207 -189.343)" fill="#fff"/>
    <circle id="Ellipse_41" data-name="Ellipse 41" cx="4.644" cy="4.644" r="4.644" transform="translate(58.725 12.05)" fill="#fff"/>
    <path id="Path_68" data-name="Path 68" d="M497.771,252.617c2.729,0,3.616.013,6.346-.01a7.355,7.355,0,0,0,1.834-.227,2.982,2.982,0,0,0,2.12-3.005,3.055,3.055,0,0,0-2.346-2.842,8.436,8.436,0,0,0-1.6-.2c-.238,0-.446-.006-.825-.014a24.788,24.788,0,0,0-3.033.039,11.121,11.121,0,0,1-7.989-2.4,11.264,11.264,0,0,1-4.444-10.242,11.668,11.668,0,0,1,8.742-10.135,13.51,13.51,0,0,1,2.94-.4c4.756-.039,7.669-.02,12.425-.012,1.425,0,1.625.211,1.362,1.584a8.481,8.481,0,0,1-7.726,6.9c-2.564.008-3.285.007-5.849.025a3.167,3.167,0,0,0-3.139,2,3.069,3.069,0,0,0,2.536,4.208c.819.081,1.652.036,2.479.038,1.7,0,1.548-.006,3.244,0a11.562,11.562,0,0,1,.579,23.113c-3.757.156-5.683.07-9.446.025a8.616,8.616,0,0,1-8.128-7.236c-.174-1,.009-1.224,1.1-1.229,2.936-.015,5.873-.005,8.809-.005Z" transform="translate(-380.067 -203.113)" fill="#fff"/>
    <g id="Group_43" data-name="Group 43" transform="translate(3 0)">
      <path id="S" d="M9.916,35.074c3.25,0,4.564.016,7.814-.012a8.74,8.74,0,0,0,2.183-.27,3.551,3.551,0,0,0,2.525-3.579,3.638,3.638,0,0,0-2.793-3.384,10.049,10.049,0,0,0-1.9-.241,16.325,16.325,0,0,0-2.868.03,13.241,13.241,0,0,1-9.512-2.856A13.413,13.413,0,0,1,.07,12.567,13.894,13.894,0,0,1,10.479.5a16.09,16.09,0,0,1,3.5-.471C19.642-.018,23.323,0,28.985.014c1.7,0,1.935.251,1.622,1.886a10.1,10.1,0,0,1-9.2,8.219c-3.053.01-4.123.009-7.176.028A3.772,3.772,0,0,0,10.5,12.53a3.655,3.655,0,0,0,3.02,5.01,3.7,3.7,0,0,0,1.016.046c2.019.005,2.055-.008,4.074,0a13.767,13.767,0,0,1,.69,27.52c-4.473.186,3.22.083-1.26.029a10.257,10.257,0,0,1-9.678-8.615c-.208-1.2.01-1.458,1.315-1.464,3.5-.017,5.056-.006,8.552-.006Z" transform="translate(0.758 12.909)" fill="#fff"/>
      <ellipse id="Ellipse_46" data-name="Ellipse 46" cx="5.274" cy="5.274" rx="5.274" ry="5.274" transform="translate(24.985 0)" fill="#fff"/>
      <ellipse id="Ellipse_47" data-name="Ellipse 47" cx="3.626" cy="3.626" rx="3.626" ry="3.626" transform="translate(15.201 2.741)" fill="#fff"/>
      <ellipse id="Ellipse_48" data-name="Ellipse 48" cx="2.967" cy="2.967" rx="2.967" ry="2.967" transform="translate(6.7 5.765)" fill="#fff"/>
      <ellipse id="Ellipse_49" data-name="Ellipse 49" cx="2.637" cy="2.637" rx="2.637" ry="2.637" transform="translate(0 10.251)" fill="#fff"/>
    </g>
  </g>
</svg>
